# xmcd CD database file
#
# Track frame offsets:
#	150
#	1948
#	22393
#	42258
#	66625
#	84645
#	103865
#	122055
#	145995
#
# Disc length: 2043 seconds
#
# Revision: 0
# Processed by: cddbd v1.4PL0 Copyright (c) Steve Scherf et al.
# Submitted via: CD2WAV32(EN) R3.19
#
DISCID=8207f909
DTITLE=SASAKI Yuko - give me a Five
DYEAR=1900
DGENRE=
TTITLE0=Introduction
TTITLE1=Benkyo Shiyouyo
TTITLE2=Mr. Policeman
TTITLE3=you are my dream
TTITLE4=farewell song
TTITLE5=Genkidesuka
TTITLE6=Koi ha C'est si bon
TTITLE7=Ichiban Iitoki
TTITLE8=Epilogue
EXTD=
EXTT0=
EXTT1=
EXTT2=
EXTT3=
EXTT4=
EXTT5=
EXTT6=
EXTT7=
EXTT8=
PLAYORDER=
